<svg xmlns="http://www.w3.org/2000/svg" width="1100" height="318" viewBox="0 0 1600 348"><g transform="matrix(1,0,0,1,-0.9190909090909918,-1.5915832499888154)"><svg viewBox="0 0 400 92" data-background-color="#111111" preserveAspectRatio="xMidYMid meet" height="348" width="1500" xmlns="http://www.w3.org/2000/svg" xmlns:xlink="http://www.w3.org/1999/xlink"><g id="tight-bounds" transform="matrix(1,0,0,1,0.2400000000000091,0.4207633879280763)"><svg viewBox="0 0 395.52 91.15847322414385" height="91.15847322414385" width="395.52"><g><svg viewBox="0 0 565.3442390017858 130.29914460322684" height="91.15847322414385" width="395.52"><g transform="matrix(1,0,0,1,169.8242390017858,23.293248068570925)"><svg viewBox="0 0 395.52 83.71264846608499" height="83.71264846608499" width="395.52"><g id="textblocktransform"><svg viewBox="0 0 395.52 83.71264846608499" height="83.71264846608499" width="395.52" id="textblock"><g><svg viewBox="0 0 395.52 83.71264846608499" height="83.71264846608499" width="395.52"><g transform="matrix(1,0,0,1,0,0)"><svg width="395.52" viewBox="2.42 -36.23 173.47 36.72" height="83.71264846608499" data-palette-color="#ffffff"><path d="M17.07 0L12.96 0 12.96-16.75Q12.96-20.51 12.37-22.01 11.77-23.51 10.18-23.51L10.18-23.51Q8.62-23.51 7.65-21.17 6.69-18.82 6.69-14.82L6.69-14.82 6.69 0 2.56 0 2.56-20.78Q2.56-25.39 2.42-26.42L2.42-26.42 6.05-26.42 6.2-23.32 6.2-22.14 6.25-22.14Q7.08-24.63 8.35-25.77 9.62-26.9 11.52-26.9L11.52-26.9Q13.67-26.9 14.73-25.73 15.8-24.56 16.26-22.12L16.26-22.12 16.31-22.12Q17.29-24.71 18.64-25.81 20-26.9 22.07-26.9L22.07-26.9Q24.95-26.9 26.2-24.8 27.44-22.71 27.44-17.6L27.44-17.6 27.44 0 23.34 0 23.34-16.75Q23.34-20.51 22.74-22.01 22.14-23.51 20.56-23.51L20.56-23.51Q18.95-23.51 18.01-21.46 17.07-19.41 17.07-15.31L17.07-15.31 17.07 0ZM56.78-13.23L56.78-13.23Q56.78-6.57 53.72-3.04 50.66 0.49 44.87 0.49L44.87 0.49Q39.21 0.49 36.19-3.08 33.18-6.64 33.18-13.23L33.18-13.23Q33.18-20.04 36.26-23.47 39.35-26.9 45.02-26.9L45.02-26.9Q50.97-26.9 53.88-23.51 56.78-20.12 56.78-13.23ZM52.17-13.23L52.17-13.23Q52.17-18.48 50.5-21.07 48.83-23.66 45.09-23.66L45.09-23.66Q41.31-23.66 39.55-21.02 37.79-18.38 37.79-13.23L37.79-13.23Q37.79-8.11 39.55-5.43 41.31-2.76 44.82-2.76L44.82-2.76Q48.7-2.76 50.44-5.37 52.17-7.98 52.17-13.23ZM88.3-26.42L77.46 0 72.26 0 61.69-26.42 66.62-26.42 73.16-9.23 73.58-7.93 74.85-3.44 75.7-6.3 76.66-9.18 83.39-26.42 88.3-26.42ZM108.2-26.42L108.2-3.47 117.47-3.47 117.47 0 93.5 0 93.5-3.47 103.8-3.47 103.8-22.95 96.01-22.95 96.01-26.42 108.2-26.42ZM108.2-31.54L103.31-31.54 103.31-36.23 108.2-36.23 108.2-31.54ZM146.72-12.28L127.87-12.28Q127.87-7.84 129.84-5.32 131.8-2.81 135.22-2.81L135.22-2.81Q137.73-2.81 139.63-3.89 141.52-4.98 142.15-6.86L142.15-6.86 146.01-5.76Q144.94-2.73 142.07-1.12 139.2 0.49 135.22 0.49L135.22 0.49Q129.46 0.49 126.36-3.1 123.26-6.69 123.26-13.38L123.26-13.38Q123.26-19.9 126.3-23.4 129.34-26.9 135.07-26.9L135.07-26.9Q140.81-26.9 143.76-23.41 146.72-19.92 146.72-12.87L146.72-12.87 146.72-12.28ZM135.12-23.66L135.12-23.66Q131.85-23.66 129.95-21.52 128.04-19.38 127.92-15.65L127.92-15.65 142.18-15.65Q141.49-23.66 135.12-23.66ZM175.89-7.54L175.89-7.54Q175.89-3.78 173.05-1.65 170.2 0.49 165.17 0.49L165.17 0.49Q160.14 0.49 157.52-1.09 154.89-2.66 154.09-6.05L154.09-6.05 157.97-6.81Q158.43-4.71 159.96-3.75 161.49-2.78 165.17-2.78L165.17-2.78Q171.76-2.78 171.76-6.96L171.76-6.96Q171.76-8.52 170.57-9.48 169.37-10.45 166.91-11.06L166.91-11.06Q160.46-12.65 158.73-13.55 156.99-14.45 156.07-15.81 155.14-17.16 155.14-19.19L155.14-19.19Q155.14-22.78 157.73-24.8 160.31-26.83 165.22-26.83L165.22-26.83Q169.52-26.83 172.08-25.21 174.65-23.58 175.28-20.48L175.28-20.48 171.33-20Q171.06-21.75 169.59-22.66 168.13-23.56 165.22-23.56L165.22-23.56Q159.24-23.56 159.24-19.87L159.24-19.87Q159.24-18.41 160.25-17.53 161.27-16.65 163.51-16.11L163.51-16.11 166.42-15.36Q170.4-14.38 172.14-13.43 173.89-12.48 174.89-11.05 175.89-9.62 175.89-7.54Z" opacity="1" transform="matrix(1,0,0,1,0,0)" fill="#ffffff" class="wordmark-text-0" data-fill-palette-color="primary" id="text-0"></path></svg></g></svg></g></svg></g></svg></g><g><svg viewBox="0 0 130.29914460322684 130.29914460322684" height="130.29914460322684" width="130.29914460322684"><g><svg></svg></g><g id="icon-0"><svg viewBox="0 0 130.29914460322684 130.29914460322684" height="130.29914460322684" width="130.29914460322684"><g><path d="M0 65.15c0-35.981 29.168-65.15 65.15-65.15 35.981 0 65.15 29.168 65.149 65.15 0 35.981-29.168 65.15-65.149 65.149-35.981 0-65.15-29.168-65.15-65.149zM65.15 122.75c31.812 0 57.6-25.789 57.6-57.6 0-31.812-25.789-57.6-57.6-57.601-31.812 0-57.6 25.789-57.601 57.601 0 31.812 25.789 57.6 57.601 57.6z" data-fill-palette-color="tertiary" fill="#ffffff" stroke="transparent"></path></g><g transform="matrix(1,0,0,1,29.456527121047607,35.691123900811185)"><svg viewBox="0 0 71.38609036113162 58.916896801604466" height="58.916896801604466" width="71.38609036113162"><g><svg xmlns="http://www.w3.org/2000/svg" xmlns:xlink="http://www.w3.org/1999/xlink" version="1.1" x="0" y="0" viewBox="8.857 15.772 83.459 68.881" enable-background="new 0 0 100 100" xml:space="preserve" height="58.916896801604466" width="71.38609036113162" class="icon-dxe-0" data-fill-palette-color="accent" id="dxe-0"><g fill="#ffffff" data-fill-palette-color="accent"><path d="M43.296 79.25C47.915 79.25 51.858 76.339 53.413 72.26 53.869 71.063 54.13 69.771 54.13 68.416 54.13 62.442 49.27 57.583 43.296 57.583S32.463 62.442 32.463 68.416C32.463 69.77 32.724 71.062 33.18 72.258 34.735 76.338 38.677 79.25 43.296 79.25M43.298 74.47C45.255 74.47 47.154 74.233 48.977 73.795A7.8 7.8 0 0 1 43.296 76.25 7.8 7.8 0 0 1 37.616 73.794C39.439 74.231 41.34 74.47 43.298 74.47" fill="#ffffff" data-fill-palette-color="accent"></path><path d="M35.771 50.211C35.771 44.238 30.911 39.379 24.938 39.379 23.653 39.379 22.426 39.615 21.282 40.027 17.104 41.531 14.104 45.522 14.104 50.211S17.104 58.893 21.282 60.398C22.426 60.81 23.654 61.046 24.938 61.046 30.912 61.046 35.771 56.186 35.771 50.211M17.104 50.211A7.8 7.8 0 0 1 19.756 44.353 24.3 24.3 0 0 0 19.756 56.071 7.8 7.8 0 0 1 17.104 50.211" fill="#ffffff" data-fill-palette-color="accent"></path><path d="M43.296 42.53C49.27 42.53 54.13 37.67 54.13 31.697 54.13 30.483 53.92 29.319 53.55 28.228 52.099 23.953 48.055 20.864 43.296 20.864S34.493 23.954 33.043 28.23C32.673 29.32 32.463 30.484 32.463 31.698 32.463 37.67 37.323 42.53 43.296 42.53M43.296 23.863A7.82 7.82 0 0 1 49.335 26.713 24.3 24.3 0 0 0 43.298 25.955C41.213 25.955 39.189 26.219 37.257 26.714A7.82 7.82 0 0 1 43.296 23.863" fill="#ffffff" data-fill-palette-color="accent"></path><path d="M50.824 50.211C50.824 56.186 55.683 61.046 61.657 61.046 62.941 61.046 64.169 60.81 65.312 60.398 69.49 58.894 72.49 54.903 72.49 50.213S69.49 41.532 65.312 40.027A10.8 10.8 0 0 0 61.657 39.379C55.684 39.379 50.824 44.238 50.824 50.211M69.49 50.213A7.8 7.8 0 0 1 66.838 56.072 24.3 24.3 0 0 0 66.838 44.353 7.8 7.8 0 0 1 69.49 50.213" fill="#ffffff" data-fill-palette-color="accent"></path><path d="M37.818 50.213A5.485 5.485 0 0 0 43.297 55.692C46.318 55.692 48.776 53.234 48.776 50.213S46.318 44.733 43.297 44.733A5.486 5.486 0 0 0 37.818 50.213M45.776 50.213A2.48 2.48 0 0 1 43.297 52.692 2.48 2.48 0 0 1 40.818 50.213 2.48 2.48 0 0 1 43.297 47.733 2.48 2.48 0 0 1 45.776 50.213" fill="#ffffff" data-fill-palette-color="accent"></path><path d="M92.316 49.705A1.5 1.5 0 1 0 89.316 49.705C89.316 67.293 75.011 81.602 57.425 81.609 69.387 76.204 77.737 64.169 77.737 50.212 77.737 31.221 62.287 15.772 43.297 15.772S8.857 31.222 8.857 50.212C8.857 69.203 24.307 84.653 43.297 84.653 43.878 84.653 44.455 84.637 45.028 84.609H57.415C76.66 84.608 92.316 68.951 92.316 49.705M11.857 50.212C11.857 32.876 25.961 18.772 43.297 18.772S74.737 32.876 74.737 50.212C74.737 66.994 61.52 80.746 44.95 81.609H43.297C43.187 81.609 43.081 81.623 42.977 81.645 25.789 81.473 11.857 67.441 11.857 50.212" fill="#ffffff" data-fill-palette-color="accent"></path></g></svg></g></svg></g></svg></g></svg></g></svg></g><defs></defs></svg><rect width="395.52" height="91.15847322414385" fill="none" stroke="none" visibility="hidden"></rect></g></svg></g></svg>