<svg width="411" height="160" viewBox="0 0 411 109" fill="none" xmlns="http://www.w3.org/2000/svg">
<g clip-path="url(#clip0_11527_7043)">
<path d="M0 83.9902H20.64C21.79 83.9902 22.76 84.3902 23.56 85.1902C24.36 85.9902 24.76 86.9702 24.76 88.1102V104.62C24.76 105.77 24.36 106.74 23.56 107.54C22.76 108.34 21.78 108.74 20.64 108.74H0V83.9902ZM21.98 104.63V88.1202C21.98 87.7502 21.85 87.4402 21.58 87.1702C21.32 86.9102 21 86.7702 20.63 86.7702H4.13C3.76 86.7702 3.45 86.9002 3.18 87.1702C2.92 87.4302 2.78 87.7502 2.78 88.1202V104.63C2.78 105 2.91 105.31 3.18 105.58C3.44 105.84 3.76 105.98 4.13 105.98H20.64C21.01 105.98 21.32 105.85 21.59 105.58C21.85 105.31 21.98 105 21.98 104.63Z" fill="#fff"/>
<path d="M53.3596 88.15V95.41C53.3596 96.56 52.9596 97.53 52.1596 98.33C51.3596 99.13 50.3796 99.53 49.2396 99.53H45.4596L53.2296 108.75H49.5496L41.8096 99.53H32.7296C32.5196 99.53 32.0796 99.48 31.3896 99.39V108.75H28.5996V84.02H49.2396C50.3896 84.02 51.3596 84.42 52.1596 85.22C52.9596 86.03 53.3596 87.01 53.3596 88.15ZM32.7196 96.72H49.2296C49.5996 96.72 49.9096 96.59 50.1596 96.34C50.4096 96.09 50.5396 95.78 50.5396 95.41V88.15C50.5396 87.78 50.4096 87.47 50.1596 87.2C49.9096 86.94 49.5996 86.8 49.2296 86.8H32.7196C32.3496 86.8 32.0396 86.93 31.7696 87.2C31.5096 87.46 31.3696 87.78 31.3696 88.15V95.41C31.3696 95.78 31.4996 96.09 31.7696 96.34C32.0296 96.59 32.3496 96.72 32.7196 96.72Z" fill="#fff"/>
<path d="M79.6701 83.9902V86.7802H59.8601V94.9702H75.7901V97.7902H59.8601V105.98H79.6801V108.77H57.0801V83.9902H79.6701Z" fill="#fff"/>
<path d="M87.5504 83.9902H104.06C105.21 83.9902 106.18 84.3902 106.98 85.1902C107.78 85.9902 108.18 86.9702 108.18 88.1102V108.75H105.39V99.7002H86.1904V108.75H83.4004V88.1202C83.4004 86.9702 83.8004 86.0002 84.6004 85.2002C85.4304 84.3902 86.4104 83.9902 87.5504 83.9902ZM86.2104 96.9302H105.41V88.1202C105.41 87.7502 105.28 87.4402 105.01 87.1702C104.75 86.9102 104.43 86.7702 104.06 86.7702H87.5504C87.1804 86.7702 86.8704 86.9002 86.6004 87.1702C86.3404 87.4302 86.2004 87.7502 86.2004 88.1202V96.9302H86.2104Z" fill="#fff"/>
<path d="M126.219 96.2402L136.509 83.9902H140.329V108.76H137.539V87.1602L126.219 100.61L114.899 87.1502V108.75H112.109V83.9902H115.929L126.219 96.2402Z" fill="#fff"/>
<path d="M168.641 88.12V89.08H165.851V88.12C165.851 87.75 165.721 87.44 165.451 87.17C165.191 86.91 164.871 86.77 164.501 86.77H148.001C147.631 86.77 147.321 86.9 147.051 87.17C146.791 87.43 146.651 87.75 146.651 88.12V93.66C146.651 94.03 146.781 94.34 147.051 94.59C147.311 94.84 147.631 94.97 148.001 94.97H164.511C165.661 94.97 166.631 95.37 167.431 96.17C168.231 96.97 168.631 97.95 168.631 99.09V104.63C168.631 105.78 168.231 106.75 167.431 107.55C166.631 108.35 165.651 108.75 164.511 108.75H148.001C146.851 108.75 145.881 108.35 145.081 107.55C144.281 106.75 143.881 105.77 143.881 104.63V103.67H146.671V104.63C146.671 105 146.801 105.31 147.071 105.58C147.331 105.84 147.651 105.98 148.021 105.98H164.531C164.901 105.98 165.211 105.85 165.481 105.58C165.741 105.32 165.881 105 165.881 104.63V99.09C165.881 98.72 165.751 98.41 165.481 98.16C165.221 97.91 164.901 97.78 164.531 97.78H148.001C146.851 97.78 145.881 97.38 145.081 96.58C144.281 95.78 143.881 94.8 143.881 93.66V88.12C143.881 86.97 144.281 86 145.081 85.2C145.881 84.4 146.861 84 148.001 84H164.511C165.661 84 166.631 84.4 167.431 85.2C168.241 86 168.641 86.97 168.641 88.12Z" fill="#fff"/>
<path d="M185.729 83.9902H202.239C203.389 83.9902 204.359 84.3902 205.159 85.1902C205.959 85.9902 206.359 86.9702 206.359 88.1102V104.62C206.359 105.77 205.959 106.74 205.159 107.54C204.359 108.34 203.379 108.74 202.239 108.74H185.729C184.579 108.74 183.609 108.34 182.809 107.54C182.009 106.74 181.609 105.76 181.609 104.62V88.1202C181.609 86.9702 182.009 86.0002 182.809 85.2002C183.609 84.3902 184.589 83.9902 185.729 83.9902ZM185.729 105.97H202.239C202.609 105.97 202.919 105.84 203.189 105.57C203.449 105.31 203.589 104.99 203.589 104.62V88.1202C203.589 87.7502 203.459 87.4402 203.189 87.1702C202.929 86.9102 202.609 86.7702 202.239 86.7702H185.729C185.359 86.7702 185.049 86.9002 184.779 87.1702C184.519 87.4302 184.379 87.7502 184.379 88.1202V104.63C184.379 105 184.509 105.31 184.779 105.58C185.049 105.84 185.369 105.97 185.729 105.97Z" fill="#fff"/>
<path d="M232.14 105.59V83.9902H234.93V108.76H231.11L212.95 87.1602V108.76H210.16V83.9902H213.98L232.14 105.59Z" fill="#fff"/>
<path d="M272.741 88.12V89.08H269.951V88.12C269.951 87.75 269.821 87.44 269.551 87.17C269.291 86.91 268.971 86.77 268.601 86.77H252.091C251.721 86.77 251.411 86.9 251.141 87.17C250.881 87.43 250.741 87.75 250.741 88.12V93.66C250.741 94.03 250.871 94.34 251.141 94.59C251.401 94.84 251.721 94.97 252.091 94.97H268.601C269.751 94.97 270.721 95.37 271.521 96.17C272.321 96.97 272.721 97.95 272.721 99.09V104.63C272.721 105.78 272.321 106.75 271.521 107.55C270.721 108.35 269.741 108.75 268.601 108.75H252.091C250.941 108.75 249.971 108.35 249.171 107.55C248.371 106.75 247.971 105.77 247.971 104.63V103.67H250.761V104.63C250.761 105 250.891 105.31 251.161 105.58C251.421 105.84 251.741 105.98 252.111 105.98H268.621C268.991 105.98 269.301 105.85 269.571 105.58C269.831 105.32 269.971 105 269.971 104.63V99.09C269.971 98.72 269.841 98.41 269.571 98.16C269.311 97.91 268.991 97.78 268.621 97.78H252.111C250.961 97.78 249.991 97.38 249.191 96.58C248.391 95.78 247.991 94.8 247.991 93.66V88.12C247.991 86.97 248.391 86 249.191 85.2C249.991 84.4 250.971 84 252.111 84H268.621C269.771 84 270.741 84.4 271.541 85.2C272.331 86 272.741 86.97 272.741 88.12Z" fill="#fff"/>
<path d="M301.12 86.78H280.55C280.18 86.78 279.87 86.91 279.61 87.18C279.34 87.44 279.21 87.76 279.21 88.13V104.64C279.21 105.01 279.34 105.32 279.61 105.59C279.87 105.85 280.19 105.99 280.55 105.99H301.12V108.78H280.55C279.4 108.78 278.43 108.38 277.63 107.58C276.83 106.78 276.43 105.8 276.43 104.66V88.12C276.43 86.97 276.83 86 277.63 85.2C278.43 84.4 279.41 84 280.55 84H301.12V86.78Z" fill="#fff"/>
<path d="M329.43 88.15V95.41C329.43 96.56 329.03 97.53 328.23 98.33C327.43 99.13 326.45 99.53 325.31 99.53H321.53L329.31 108.75H325.63L317.89 99.53H308.81C308.6 99.53 308.16 99.48 307.47 99.39V108.75H304.68V84.02H325.32C326.47 84.02 327.44 84.42 328.24 85.22C329.03 86.03 329.43 87.01 329.43 88.15ZM308.79 96.72H325.3C325.67 96.72 325.98 96.59 326.23 96.34C326.48 96.09 326.61 95.78 326.61 95.41V88.15C326.61 87.78 326.48 87.47 326.23 87.2C325.98 86.94 325.67 86.8 325.3 86.8H308.79C308.42 86.8 308.11 86.93 307.85 87.2C307.58 87.46 307.45 87.78 307.45 88.15V95.41C307.45 95.78 307.58 96.09 307.85 96.34C308.1 96.59 308.42 96.72 308.79 96.72Z" fill="#fff"/>
<path d="M355.75 83.9902V86.7802H335.93V94.9702H351.86V97.7902H335.93V105.98H355.75V108.77H333.15V83.9902H355.75Z" fill="#fff"/>
<path d="M382.1 83.9902V86.7802H362.28V94.9702H378.21V97.7902H362.28V105.98H382.1V108.77H359.5V83.9902H382.1Z" fill="#fff"/>
<path d="M407.759 105.59V83.9902H410.549V108.76H406.729L388.569 87.1602V108.76H385.779V83.9902H389.599L407.759 105.59Z" fill="#fff"/>
<path d="M59.1 0L34.18 29.67L9.26 0H0.62L11.5 13.32L34.17 40.27L61.61 7.67V53.27C61.61 57 64.63 60.02 68.36 60.02V0H59.1ZM6.45 18.07L6.41 18.02L0 10.19V60.02H6.75V18.47L6.45 18.07Z" fill="#fff"/>
<path d="M100.869 0H140.879C143.659 0 146.019 0.97 147.969 2.92C149.909 4.87 150.889 7.23 150.889 10.01V50.02C150.889 52.8 149.919 55.16 147.969 57.11C146.019 59.06 143.659 60.03 140.879 60.03H100.869C98.0894 60.03 95.7294 59.06 93.7794 57.11C91.8294 55.17 90.8594 52.8 90.8594 50.02V10C90.8594 7.22 91.8294 4.86 93.7794 2.91C95.7294 0.97 98.0894 0 100.869 0ZM100.869 53.27H140.879C141.769 53.27 142.529 52.95 143.169 52.31C143.809 51.67 144.129 50.91 144.129 50.02V10C144.129 9.11 143.809 8.35 143.169 7.71C142.529 7.07 141.769 6.75 140.879 6.75H100.869C99.9794 6.75 99.2194 7.07 98.5794 7.71C97.9394 8.35 97.6194 9.11 97.6194 10V50.01C97.6194 50.9 97.9394 51.66 98.5794 52.3C99.2094 52.95 99.9794 53.27 100.869 53.27Z" fill="#fff"/>
<path d="M201.561 53.44L229.721 4.39C231.281 1.68 234.161 0.01 237.291 0.01H240.161L207.281 56.92C206.171 58.85 204.111 60.03 201.891 60.03C199.261 60.03 196.841 58.63 195.521 56.36L162.891 0H166.801C169.281 0 171.571 1.33 172.811 3.48L201.561 53.44Z" fill="#fff"/>
<path d="M255.17 60.02H259.95C261.04 60.02 261.93 59.13 261.93 58.04V16.24H255.18V60.02H255.17ZM255.17 0V12.25H261.92V6.75C261.92 3.02 258.9 0 255.17 0Z" fill="#fff"/>
<path d="M287.18 33.43H325.78C325.78 29.65 322.72 26.59 318.94 26.59H280.43V60.02H335.19C335.19 56.29 332.17 53.27 328.44 53.27H287.18V33.43ZM280.42 0V6.76H287.17V6.75H328.42C332.15 6.75 335.17 3.73 335.17 0H280.42Z" fill="#fff"/>
<path d="M410.55 10.0002V12.3302H406.13C404.84 12.3302 403.8 11.2902 403.8 10.0002C403.8 9.11023 403.48 8.35023 402.84 7.71023C402.2 7.07023 401.44 6.75023 400.55 6.75023H360.54C359.65 6.75023 358.89 7.07023 358.25 7.71023C357.61 8.35023 357.29 9.11023 357.29 10.0002V23.3202C357.29 24.2202 357.63 25.1002 358.29 25.7102C358.92 26.3002 359.67 26.5902 360.54 26.5902H400.55C403.33 26.5902 405.69 27.5602 407.64 29.5102C409.58 31.4602 410.56 33.8202 410.56 36.6002V50.0202C410.56 52.8002 409.59 55.1602 407.64 57.1102C405.69 59.0602 403.33 60.0302 400.55 60.0302H360.54C357.76 60.0302 355.4 59.0602 353.45 57.1102C351.5 55.1702 350.53 52.8002 350.53 50.0202V47.6902H354.95C356.24 47.6902 357.28 48.7402 357.28 50.0202C357.28 50.9102 357.6 51.6702 358.24 52.3102C358.88 52.9502 359.64 53.2702 360.53 53.2702H400.54C401.43 53.2702 402.19 52.9502 402.83 52.3102C403.47 51.6702 403.79 50.9102 403.79 50.0202V36.6902C403.79 35.8002 403.45 34.9202 402.79 34.3102C402.16 33.7202 401.41 33.4302 400.54 33.4302H360.53C357.75 33.4302 355.39 32.4602 353.44 30.5102C351.49 28.5702 350.52 26.2002 350.52 23.4202V10.0002C350.52 7.22023 351.49 4.86023 353.44 2.91023C355.38 0.970234 357.75 -0.00976562 360.53 -0.00976562H400.54C403.32 -0.00976562 405.68 0.960234 407.63 2.91023C409.58 4.87023 410.55 7.23023 410.55 10.0002Z" fill="#fff"/>
</g>
<defs>
<clipPath id="clip0_11527_7043">
<rect width="410.55" height="108.76" fill="white"/>
</clipPath>
</defs>
</svg>
